<?xml version="1.0" encoding="UTF-8"?>
<svg version="1.1" xmlns="http://www.w3.org/2000/svg" width="512" height="512">
<path d="M0 0 C9.9 0 19.8 0 30 0 C30 12.87 30 25.74 30 39 C31.65 39.33 33.3 39.66 35 40 C47.37851393 44.5362256 57.09672863 54.59146019 62.5703125 66.3828125 C64.64058781 71.57624599 66.21235526 76.45332286 67 82 C68.08796875 81.95359375 69.1759375 81.9071875 70.296875 81.859375 C84.19361609 81.44210786 95.15710602 83.64891358 106 93 C108.81875892 95.88497138 111.42359519 98.89947362 114 102 C114.66 102.66 115.32 103.32 116 104 C116.81984375 103.57847656 117.6396875 103.15695312 118.484375 102.72265625 C119.56203125 102.17480469 120.6396875 101.62695312 121.75 101.0625 C122.81734375 100.51722656 123.8846875 99.97195313 124.984375 99.41015625 C132.56319567 95.86617404 142.71578788 95.74463469 150.828125 97.671875 C153 98.5 153 98.5 156 100 C156.2578125 99.12085938 156.515625 98.24171875 156.78125 97.3359375 C161.00607578 85.77183105 170.74034422 77.30386803 181.625 72.125 C194.53737896 66.44355326 208.88728929 66.06953642 222.14453125 70.8125 C236.2068703 76.66058628 245.51842301 86.05311183 252.31640625 99.62890625 C257.13913137 111.44206222 257.06947008 127.64374512 252.25 139.44140625 C251.8375 140.28574219 251.425 141.13007813 251 142 C250.5875 142.85464844 250.175 143.70929688 249.75 144.58984375 C242.58430774 157.80158886 231.62744686 165.44517457 217.63671875 170.125 C208.38271767 172.35152658 199.0335532 172.14443977 189.57891846 172.13371277 C188.01299127 172.13558297 186.44706455 172.1378845 184.88113856 172.14057809 C180.59396728 172.14667666 176.30681555 172.14656479 172.01964092 172.14538372 C167.38964731 172.14517922 162.7596599 172.15070314 158.12966919 172.15544128 C149.06463841 172.16373768 139.99961414 172.16649567 130.93457988 172.16705366 C123.56409998 172.16752929 116.19362223 172.16958638 108.82314301 172.17275429 C87.91390808 172.18155802 67.00467828 172.18617409 46.09544149 172.18542381 C44.9688872 172.18538386 43.84233292 172.1853439 42.68164062 172.18530273 C41.55370656 172.18526185 40.4257725 172.18522097 39.26365861 172.18517885 C20.98566746 172.18477244 2.70769692 172.19434158 -15.57028827 172.2084411 C-34.35031352 172.22281328 -53.13032873 172.22971082 -71.91035962 172.22884732 C-82.44896391 172.22851565 -92.9875466 172.23124976 -103.52614594 172.24202538 C-112.49898072 172.25114143 -121.47178411 172.25329653 -130.44462153 172.24651595 C-135.01936853 172.24325637 -139.59405531 172.24317375 -144.16879654 172.2518692 C-148.36344639 172.25975994 -152.55798856 172.25827662 -156.75263587 172.24958507 C-158.26335579 172.24805574 -159.77408386 172.24984468 -161.28479418 172.25544515 C-178.46418629 172.31487189 -194.61792219 170.75490692 -208 159 C-208.66644531 158.44957031 -209.33289063 157.89914062 -210.01953125 157.33203125 C-218.0599749 150.12176725 -224.2068988 138.48974739 -225.21728516 127.67407227 C-226.02032466 110.55412925 -223.41703222 97.54919046 -212.34375 83.96875 C-203.74399872 74.71996089 -190.82118057 68.56051252 -178.25 67.76171875 C-161.84306388 67.33295597 -148.19648459 71.73216443 -135.890625 82.9375 C-131.53479839 87.68931085 -127.19257087 93.55407899 -126 100 C-125.01 99.505 -124.02 99.01 -123 98.5 C-113.55660005 94.9943684 -102.40434783 96.04515952 -93.28515625 99.91015625 C-92.53105469 100.26980469 -91.77695313 100.62945312 -91 101 C-90.33871094 101.30808594 -89.67742187 101.61617188 -88.99609375 101.93359375 C-87.64678314 102.58789982 -86.31919481 103.28692173 -85 104 C-84.6596875 103.50371094 -84.319375 103.00742187 -83.96875 102.49609375 C-76.33905856 91.8023507 -66.90800263 84.99842144 -54 82 C-51.01344892 81.78282709 -48.05474517 81.80833473 -45.0625 81.875 C-44.28326172 81.88402344 -43.50402344 81.89304687 -42.70117188 81.90234375 C-40.80064553 81.92566309 -38.90027992 81.96152414 -37 82 C-36.85304687 81.27296875 -36.70609375 80.5459375 -36.5546875 79.796875 C-32.81759969 63.04441242 -25.17872148 51.93639205 -10.83203125 42.62890625 C-7.13924292 40.50491627 -4.29316031 39 0 39 C0 26.13 0 13.26 0 0 Z " fill="#040404" transform="translate(241,323)"/>
<path d="M0 0 C3.8038254 0.5355961 7.00767315 1.2886966 10.5 2.875 C32.54587706 11.95077274 56.10754875 9.95162374 78 2 C78.91136719 1.6184375 79.82273437 1.236875 80.76171875 0.84375 C83 0 83 0 86 0 C116.17041958 72.71037384 96.89737162 151.19763641 76.6015625 223.9375 C76.3831218 224.7232843 76.16468109 225.5090686 75.93962097 226.31866455 C74.84190243 230.21230462 73.68880284 234.08626343 72.46240234 237.94140625 C72.23064301 238.67174072 71.99888367 239.4020752 71.76010132 240.15454102 C71 242 71 242 69 244 C66.80555725 244.26742554 66.80555725 244.26742554 64.04711914 244.29052734 C63.01587418 244.30328705 61.98462921 244.31604675 60.9221344 244.32919312 C59.80443161 244.33141876 58.68672882 244.33364441 57.53515625 244.3359375 C55.81878212 244.3459227 55.81878212 244.3459227 54.06773376 244.35610962 C51.64421195 244.36624932 49.22066214 244.37092623 46.79711914 244.37060547 C43.081077 244.37497814 39.36622239 244.4112845 35.65039062 244.44921875 C33.29948324 244.45508658 30.9485702 244.4590562 28.59765625 244.4609375 C27.48197769 244.47530853 26.36629913 244.48967957 25.21681213 244.50448608 C24.18241501 244.49833282 23.14801788 244.49217957 22.08227539 244.48583984 C21.17119522 244.48868988 20.26011505 244.49153992 19.32142639 244.49447632 C17 244 17 244 15.25881958 242.19577026 C13.41207564 238.97447828 12.52742473 235.54693417 11.58203125 231.984375 C11.3638121 231.18955215 11.14559296 230.39472931 10.92076111 229.57582092 C10.20841849 226.96971132 9.50973665 224.36018851 8.8125 221.75 C8.32023049 219.92661067 7.8277149 218.10328776 7.33496094 216.2800293 C6.10199291 211.70239471 4.88353583 207.12104873 3.67169189 202.53778076 C3.05749321 200.21722038 2.43932779 197.89776183 1.81982422 195.57861328 C-7.52802507 160.47123163 -14.91647244 124.40652607 -16 88 C-16.04125 86.8140625 -16.0825 85.628125 -16.125 84.40625 C-16.63426966 55.63251402 -11.91366128 26.31144767 0 0 Z M20 58 C14.95528972 64.46688924 12.40325887 71.52983464 12.6953125 79.8046875 C13.95708644 88.89593048 18.11380732 96.01038213 25 102 C33.02919984 107.16674 40.66378505 107.71346621 50 107 C57.61638182 105.12970506 64.44482852 100.11490395 68.57421875 93.46484375 C72.78777475 85.26712305 74.23498665 78.1255915 71.9375 69.0625 C68.96435145 60.10176062 63.4188234 54.67838807 55.33203125 50.09375 C43.22950826 44.41752481 28.75174701 48.31056581 20 58 Z " fill="#050505" transform="translate(213,70)"/>
<path d="M0 0 C0.66 0 1.32 0 2 0 C3.49391548 5.83074132 4.98721259 11.66164056 6.47998047 17.49267578 C6.98600277 19.4689544 7.4921829 21.44519261 7.99853516 23.42138672 C11.03487115 35.27211591 14.05105924 47.12719641 17 59 C16.18200928 59.53133545 15.36401855 60.0626709 14.52124023 60.61010742 C-0.05779411 70.1234097 -14.13084381 81.15742998 -23.6328125 95.9765625 C-24.95047881 97.92670864 -26.19209784 99.49341487 -28 101 C-30.13745922 100.74853421 -31.45925779 100.54074221 -33 99 C-35.88636475 61.25859424 -24.66424107 31.00163158 -1.62890625 1.73046875 C-1.09136719 1.15941406 -0.55382812 0.58835938 0 0 Z " fill="#0E0E0E" transform="translate(200,247)"/>
<path d="M0 0 C0.66 0 1.32 0 2 0 C3.8016591 2.02307511 5.47271722 4.04673808 7.125 6.1875 C7.61709961 6.82244385 8.10919922 7.4573877 8.61621094 8.11157227 C26.99455812 32.19055512 35.18943832 58.53265612 35.3125 88.6875 C35.31797852 89.68571777 35.32345703 90.68393555 35.32910156 91.71240234 C35.25798389 98.74201611 35.25798389 98.74201611 33 101 C30.578125 100.90234375 30.578125 100.90234375 28 100 C26.296875 98.06640625 26.296875 98.06640625 24.75 95.5625 C20.9979714 89.85289126 16.67757994 84.96413439 12 80 C11.45988281 79.39542969 10.91976563 78.79085937 10.36328125 78.16796875 C3.17225166 70.43353642 -6.24154382 64.79897784 -15 59 C-12.29592152 46.86722681 -9.14178552 34.86276918 -5.90625 22.86279297 C-3.85795828 15.26040284 -1.8777332 7.64638458 0 0 Z " fill="#0E0E0E" transform="translate(310,247)"/>
<path d="M0 0 C11.57956202 7.52671531 20.37546589 22.14652267 27.625 33.6875 C28.06303955 34.38294922 28.5010791 35.07839844 28.95239258 35.79492188 C32 40.7418341 32 40.7418341 32 43 C10.96635087 52.58831212 -12.91076631 54.86812656 -35 47 C-38.10159661 45.79041819 -41.01891202 44.49054399 -44 43 C-39.57128639 30.99179643 -31.07763199 20.7505837 -23 11 C-22.18917969 10.01 -21.37835938 9.02 -20.54296875 8 C-14.44560581 0.8535167 -9.72647729 -4.14275884 0 0 Z " fill="#0A0A0A" transform="translate(262,19)"/>
<path d="M0 0 C0.66 0.33 1.32 0.66 2 1 C-2.62 5.62 -7.24 10.24 -12 15 C-12 10.09687565 -8.29800369 7.38658643 -5 4 C-3.37458956 2.61667196 -1.72614587 1.25537882 0 0 Z " fill="#5D5D5D" transform="translate(170,412)"/>
<path d="M0 0 C0.66 0.33 1.32 0.66 2 1 C-1.96 4.96 -5.92 8.92 -10 13 C-10.66 12.67 -11.32 12.34 -12 12 C-8.27653164 7.57905197 -4.70478962 3.42166518 0 0 Z " fill="#666666" transform="translate(38,399)"/>
<path d="M0 0 C0.66 0.33 1.32 0.66 2 1 C-1.3 4.3 -4.6 7.6 -8 11 C-8.66 10.67 -9.32 10.34 -10 10 C-3.84965831 2.51708428 -3.84965831 2.51708428 0 0 Z " fill="#6D6D6D" transform="translate(414,400)"/>
<path d="M0 0 C0.66 0.33 1.32 0.66 2 1 C-1.3 4.3 -4.6 7.6 -8 11 C-8.66 10.67 -9.32 10.34 -10 10 C-3.84965831 2.51708428 -3.84965831 2.51708428 0 0 Z " fill="#676767" transform="translate(225,369)"/>
<path d="M0 0 C0.66 0.33 1.32 0.66 2 1 C-1.3 4.3 -4.6 7.6 -8 11 C-8.66 10.67 -9.32 10.34 -10 10 C-8.90033225 8.70450101 -7.79508199 7.41373929 -6.6875 6.125 C-6.07261719 5.40570312 -5.45773438 4.68640625 -4.82421875 3.9453125 C-3 2 -3 2 0 0 Z " fill="#676767" transform="translate(251,18)"/>
</svg>
